o Light
v -0.224163 0.532678 -0.000000
v -0.714010 0.703635 -0.000000
v -0.540206 0.220525 -0.000000
v -0.998508 -0.000547 -0.000001
v -0.540347 -0.221387 -0.000000
v -0.707525 -0.697053 -0.000000
v -0.223755 -0.533606 -0.000000
v 0.000146 -0.998899 0.000000
v 0.224606 -0.532376 0.000000
v 0.713007 -0.703448 0.000000
v 0.540625 -0.220772 0.000000
v 0.998232 -0.000547 0.000001
v 0.541249 0.220099 0.000000
v 0.706519 0.695961 0.000000
v 0.223983 0.532934 0.000000
v 0.000146 1.002804 -0.000000
vn -0.0000 0.0000 1.0000
f 1//1 2//1 3//1 4//1 5//1 6//1 7//1 8//1 9//1 10//1 11//1 12//1 13//1 14//1 15//1 16//1
