o arrow
v 0.252881 0.000000 -0.055000
v -0.500000 0.000000 -0.055000
v -0.500000 0.010730 -0.053943
v 0.252881 0.010730 -0.053943
v -0.500000 0.021048 -0.050813
v 0.252881 0.021048 -0.050813
v -0.500000 0.030556 -0.045731
v 0.252881 0.030556 -0.045731
v -0.500000 0.038891 -0.038891
v 0.252881 0.038891 -0.038891
v -0.500000 0.045731 -0.030556
v 0.252881 0.045731 -0.030556
v -0.500000 0.050813 -0.021048
v 0.252881 0.050813 -0.021048
v -0.500000 0.053943 -0.010730
v 0.252881 0.053943 -0.010730
v -0.500000 0.055000 0.000000
v 0.252881 0.055000 0.000000
v -0.500000 0.053943 0.010730
v 0.252881 0.053943 0.010730
v -0.500000 0.050813 0.021048
v 0.252881 0.050813 0.021048
v -0.500000 0.045731 0.030556
v 0.252881 0.045731 0.030556
v -0.500000 0.038891 0.038891
v 0.252881 0.038891 0.038891
v -0.500000 0.030556 0.045731
v 0.252881 0.030556 0.045731
v -0.500000 0.021048 0.050813
v 0.252881 0.021048 0.050813
v -0.500000 0.010730 0.053943
v 0.252881 0.010730 0.053943
v -0.500000 -0.000000 0.055000
v 0.252881 -0.000000 0.055000
v -0.500000 -0.010730 0.053943
v 0.252881 -0.010730 0.053943
v -0.500000 -0.021048 0.050813
v 0.252881 -0.021048 0.050813
v -0.500000 -0.030556 0.045731
v 0.252881 -0.030556 0.045731
v -0.500000 -0.038891 0.038891
v 0.252881 -0.038891 0.038891
v -0.500000 -0.045731 0.030556
v 0.252881 -0.045731 0.030556
v -0.500000 -0.050813 0.021048
v 0.252881 -0.050813 0.021048
v -0.500000 -0.053943 0.010730
v 0.252881 -0.053943 0.010730
v -0.500000 -0.055000 -0.000000
v 0.252881 -0.055000 -0.000000
v -0.500000 -0.053943 -0.010730
v 0.252881 -0.053943 -0.010730
v -0.500000 -0.050813 -0.021048
v 0.252881 -0.050813 -0.021048
v -0.500000 -0.045731 -0.030556
v 0.252881 -0.045731 -0.030556
v -0.500000 -0.038891 -0.038891
v 0.252881 -0.038891 -0.038891
v -0.500000 -0.030556 -0.045731
v 0.252881 -0.030556 -0.045731
v -0.500000 -0.021047 -0.050813
v 0.252881 -0.021048 -0.050813
v -0.500000 -0.010730 -0.053943
v 0.252881 -0.010730 -0.053943
v 0.252882 0.081797 -0.054655
v 0.252882 0.069563 -0.069563
v 0.252882 0.081797 0.054655
v 0.252882 0.069563 0.069563
v 0.499125 0.000000 0.000000
v 0.252882 0.037647 0.090889
v 0.252882 0.054655 0.081798
v 0.252882 0.019192 -0.096487
v 0.252882 0.000000 -0.098377
v 0.252882 -0.096487 0.019192
v 0.252882 -0.090889 0.037647
v 0.252882 -0.019192 -0.096487
v 0.252882 0.090889 0.037647
v 0.252882 0.096487 0.019192
v 0.252882 -0.054655 0.081798
v 0.252882 -0.037647 0.090889
v 0.252882 -0.069563 -0.069563
v 0.252882 -0.081797 -0.054655
v 0.252882 0.090888 -0.037647
v 0.252882 0.019192 0.096487
v 0.252882 -0.098377 -0.000000
v 0.252882 0.037647 -0.090889
v 0.252882 -0.069563 0.069563
v 0.252882 -0.054655 -0.081798
v 0.252882 0.096487 -0.019192
v 0.252882 -0.000000 0.098377
v 0.252882 -0.096487 -0.019192
v 0.252882 0.054655 -0.081798
v 0.252882 -0.081798 0.054655
v 0.252882 -0.037647 -0.090889
v 0.252882 0.098377 0.000000
v 0.252882 -0.019192 0.096487
v 0.252882 -0.090889 -0.037647
vn 0.0000 0.0980 -0.9952
vn 0.0000 0.2903 -0.9569
vn 0.0000 0.4714 -0.8819
vn 0.0000 0.6344 -0.7730
vn 0.0000 0.7730 -0.6344
vn 0.0000 0.8819 -0.4714
vn 0.0000 0.9569 -0.2903
vn 0.0000 0.9952 -0.0980
vn 0.0000 0.9952 0.0980
vn 0.0000 0.9569 0.2903
vn 0.0000 0.8819 0.4714
vn 0.0000 0.7730 0.6344
vn 0.0000 0.6344 0.7730
vn 0.0000 0.4714 0.8819
vn 0.0000 0.2903 0.9569
vn 0.0000 0.0980 0.9952
vn 0.0000 -0.0980 0.9952
vn 0.0000 -0.2903 0.9569
vn 0.0000 -0.4714 0.8819
vn 0.0000 -0.6344 0.7730
vn 0.0000 -0.7730 0.6344
vn 0.0000 -0.8819 0.4714
vn 0.0000 -0.9569 0.2903
vn 0.0000 -0.9952 0.0980
vn 0.0000 -0.9952 -0.0980
vn 0.0000 -0.9569 -0.2903
vn 0.0000 -0.8819 -0.4714
vn 0.0000 -0.7730 -0.6344
vn 0.0000 -0.6344 -0.7730
vn -0.0000 -0.4714 -0.8819
vn -1.0000 -0.0000 0.0000
vn -0.0000 -0.2903 -0.9569
vn 0.0000 -0.0980 -0.9952
vn 0.3695 0.7183 0.5895
vn 0.3695 -0.8892 -0.2697
vn 0.3695 0.5895 0.7183
vn 0.3695 -0.8195 -0.4381
vn 0.3695 0.4380 0.8195
vn 0.3695 0.0911 -0.9248
vn 0.3695 -0.7183 -0.5895
vn 0.3695 0.2697 0.8892
vn 0.3695 0.2697 -0.8892
vn 0.3695 -0.5895 -0.7183
vn 0.3695 0.0911 0.9248
vn 0.3695 0.4380 -0.8195
vn 0.3695 -0.4380 -0.8195
vn 0.3695 -0.0911 0.9248
vn 0.3695 0.5895 -0.7183
vn 0.3695 -0.2697 -0.8892
vn 0.3695 -0.2697 0.8892
vn 0.3695 0.7183 -0.5895
vn 0.3695 -0.0911 -0.9248
vn 0.3695 -0.4380 0.8195
vn 0.3695 0.8195 -0.4380
vn 0.3695 -0.5895 0.7183
vn 0.3695 0.8892 -0.2698
vn 0.3695 -0.7183 0.5895
vn 0.3695 0.9248 -0.0911
vn 0.3695 -0.8195 0.4380
vn 0.3695 0.9248 0.0911
vn 0.3695 -0.8892 0.2697
vn 0.3695 0.8892 0.2697
vn 0.3695 -0.9248 0.0911
vn 0.3695 0.8195 0.4381
vn 0.3695 -0.9248 -0.0911
f 1//1 2//1 3//1 4//1
f 4//2 3//2 5//2 6//2
f 6//3 5//3 7//3 8//3
f 8//4 7//4 9//4 10//4
f 10//5 9//5 11//5 12//5
f 12//6 11//6 13//6 14//6
f 14//7 13//7 15//7 16//7
f 16//8 15//8 17//8 18//8
f 18//9 17//9 19//9 20//9
f 20//10 19//10 21//10 22//10
f 22//11 21//11 23//11 24//11
f 24//12 23//12 25//12 26//12
f 26//13 25//13 27//13 28//13
f 28//14 27//14 29//14 30//14
f 30//15 29//15 31//15 32//15
f 32//16 31//16 33//16 34//16
f 34//17 33//17 35//17 36//17
f 36//18 35//18 37//18 38//18
f 38//19 37//19 39//19 40//19
f 40//20 39//20 41//20 42//20
f 42//21 41//21 43//21 44//21
f 44//22 43//22 45//22 46//22
f 46//23 45//23 47//23 48//23
f 48//24 47//24 49//24 50//24
f 50//25 49//25 51//25 52//25
f 52//26 51//26 53//26 54//26
f 54//27 53//27 55//27 56//27
f 56//28 55//28 57//28 58//28
f 58//29 57//29 59//29 60//29
f 60//30 59//30 61//30 62//30
f 3//31 2//31 63//31 61//31 59//31 57//31 55//31 53//31 51//31 49//31 47//31 45//31 43//31 41//31 39//31 37//31 35//31 33//31 31//31 29//31 27//31 25//31 23//31 21//31 19//31 17//31 15//31 13//31 11//31 9//31 7//31 5//31
f 62//32 61//32 63//32 64//32
f 64//33 63//33 2//33 1//33
f 10//31 12//31 65//31 66//31
f 67//34 68//34 69//34
f 28//31 30//31 70//31 71//31
f 1//31 4//31 72//31 73//31
f 46//31 48//31 74//31 75//31
f 64//31 1//31 73//31 76//31
f 20//31 22//31 77//31 78//31
f 38//31 40//31 79//31 80//31
f 56//31 58//31 81//31 82//31
f 12//31 14//31 83//31 65//31
f 30//31 32//31 84//31 70//31
f 48//31 50//31 85//31 74//31
f 4//31 6//31 86//31 72//31
f 22//31 24//31 67//31 77//31
f 40//31 42//31 87//31 79//31
f 58//31 60//31 88//31 81//31
f 14//31 16//31 89//31 83//31
f 32//31 34//31 90//31 84//31
f 50//31 52//31 91//31 85//31
f 6//31 8//31 92//31 86//31
f 24//31 26//31 68//31 67//31
f 42//31 44//31 93//31 87//31
f 60//31 62//31 94//31 88//31
f 16//31 18//31 95//31 89//31
f 34//31 36//31 96//31 90//31
f 52//31 54//31 97//31 91//31
f 8//31 10//31 66//31 92//31
f 26//31 28//31 71//31 68//31
f 44//31 46//31 75//31 93//31
f 62//31 64//31 76//31 94//31
f 18//31 20//31 78//31 95//31
f 36//31 38//31 80//31 96//31
f 54//31 56//31 82//31 97//31
f 91//35 97//35 69//35
f 68//36 71//36 69//36
f 97//37 82//37 69//37
f 71//38 70//38 69//38
f 73//39 72//39 69//39
f 82//40 81//40 69//40
f 70//41 84//41 69//41
f 72//42 86//42 69//42
f 81//43 88//43 69//43
f 84//44 90//44 69//44
f 86//45 92//45 69//45
f 88//46 94//46 69//46
f 90//47 96//47 69//47
f 92//48 66//48 69//48
f 94//49 76//49 69//49
f 96//50 80//50 69//50
f 66//51 65//51 69//51
f 76//52 73//52 69//52
f 80//53 79//53 69//53
f 65//54 83//54 69//54
f 79//55 87//55 69//55
f 83//56 89//56 69//56
f 87//57 93//57 69//57
f 89//58 95//58 69//58
f 93//59 75//59 69//59
f 95//60 78//60 69//60
f 75//61 74//61 69//61
f 78//62 77//62 69//62
f 74//63 85//63 69//63
f 77//64 67//64 69//64
f 85//65 91//65 69//65
