o icepick
v -1.058505 0.098708 -0.111324
v -0.991791 0.098708 -0.111324
v -0.991791 0.032874 -0.089934
v -1.058505 0.032874 -0.089934
v -0.991791 -0.007813 -0.033932
v -1.058505 -0.007813 -0.033932
v -0.991791 -0.007813 0.035289
v -1.058505 -0.007813 0.035289
v -0.991791 0.032874 0.091291
v -1.058505 0.032874 0.091291
v -0.991791 0.098708 0.112681
v -1.058505 0.098708 0.112681
v -0.991791 0.164541 0.091291
v -1.058505 0.164541 0.091291
v -0.991791 0.205229 0.035289
v -1.058505 0.205229 0.035289
v -0.991791 0.205229 -0.033932
v -1.058505 0.205229 -0.033932
v -0.991791 0.164541 -0.089934
v -1.058505 0.164541 -0.089934
v -1.006717 -0.149624 0.023009
v -0.889322 -0.149624 0.023009
v -0.889322 -0.233013 0.050104
v -1.006717 -0.233013 0.050104
v -0.889322 -0.284550 0.121039
v -1.006717 -0.284550 0.121039
v -0.889322 -0.284550 0.208719
v -1.006717 -0.284550 0.208719
v -0.889322 -0.233013 0.279654
v -1.006717 -0.233013 0.279654
v -0.889322 -0.149624 0.306749
v -1.006717 -0.149624 0.306749
v -0.889322 -0.066235 0.279654
v -1.006717 -0.066235 0.279654
v -0.889322 -0.014698 0.208719
v -1.006717 -0.014698 0.208719
v -0.889322 -0.014698 0.121039
v -1.006717 -0.014698 0.121039
v -0.889322 -0.066235 0.050103
v -1.006717 -0.066235 0.050103
v -1.006717 -0.149624 -0.310171
v -0.889322 -0.149624 -0.310171
v -0.889322 -0.233013 -0.283076
v -1.006717 -0.233013 -0.283076
v -0.889322 -0.284550 -0.212141
v -1.006717 -0.284550 -0.212141
v -0.889322 -0.284550 -0.124461
v -1.006717 -0.284550 -0.124461
v -0.889322 -0.233013 -0.053526
v -1.006717 -0.233013 -0.053526
v -0.889322 -0.149624 -0.026431
v -1.006717 -0.149624 -0.026431
v -0.889322 -0.066235 -0.053526
v -1.006717 -0.066235 -0.053526
v -0.889322 -0.014698 -0.124461
v -1.006717 -0.014698 -0.124461
v -0.889322 -0.014698 -0.212141
v -1.006717 -0.014698 -0.212141
v -0.889322 -0.066235 -0.283076
v -1.006717 -0.066235 -0.283076
v 0.236873 0.053741 0.158465
v 1.406494 -0.151550 0.064312
v 1.406494 -0.151550 -0.063065
v 0.236873 0.053741 -0.157218
v 1.466797 -0.314244 0.055907
v 0.236873 -0.314244 0.126871
v 0.236873 -0.314244 -0.125624
v 1.467078 -0.314244 -0.054661
v -0.130784 -0.043085 -0.232938
v -0.136470 -0.215319 -0.231435
v -0.270460 -0.215710 -0.261474
v -0.357687 0.009829 -0.192871
v -0.137703 -0.314244 -0.142572
v -0.137703 -0.314244 0.143819
v -0.276980 -0.321864 0.189526
v -0.278134 -0.321864 -0.169936
v -0.137355 0.147314 0.114931
v -0.137355 0.147314 -0.113684
v -0.318773 0.044297 -0.169563
v -0.318773 0.044503 0.165862
v 0.236873 0.011121 -0.198890
v 0.236873 -0.218351 -0.198890
v -0.136832 -0.008373 -0.198143
v 1.447273 -0.181591 0.087991
v 1.447554 -0.181591 -0.086744
v 1.482829 -0.280731 -0.086744
v 1.482512 -0.280807 0.087991
v 0.236873 -0.217817 0.200137
v -0.135792 -0.215932 0.225556
v -0.268400 -0.215722 0.275579
v -0.136832 -0.008373 0.199390
v -1.005137 0.043658 0.165024
v -1.042532 0.220468 0.089117
v -1.042532 0.220468 -0.087760
v -1.005137 0.043657 -0.163666
v -0.549913 0.220468 -0.087760
v -0.393110 0.043658 -0.186594
v -0.549913 0.220468 0.089117
v -0.393110 0.043658 0.178119
v -0.500384 0.043282 0.276169
v -0.480345 0.009728 0.296319
v -0.357378 0.008896 0.192955
v -1.005137 0.043282 -0.260706
v -0.923150 -0.215084 -0.382523
v -0.923150 -0.215084 0.395995
v -1.005137 0.043282 0.276169
v -0.500384 0.043282 -0.260706
v -0.883069 -0.329108 -0.273734
v -0.883069 -0.329108 0.301653
v -0.391181 -0.215084 0.395996
v -0.480474 0.009005 -0.275284
v -0.391181 -0.215084 -0.382523
v -0.347633 -0.329108 -0.273734
v -0.347133 -0.329108 0.301653
v -0.778638 -0.633130 0.565061
v -0.233717 -0.632678 0.565061
v -0.260397 -0.562923 0.531149
v 0.236873 0.011121 0.200137
v -0.130701 -0.042172 0.233356
v -0.227762 -0.641894 0.531649
v -0.761709 -0.682662 0.564566
v -0.211266 -0.682662 0.564566
v -0.778638 -0.633131 -0.555807
v -0.233717 -0.632679 -0.555807
v -0.211766 -0.682662 -0.554744
v -0.761709 -0.682662 -0.554744
v -0.260001 -0.563032 -0.521816
v -0.227225 -0.642800 -0.523960
v -0.093606 -0.644147 -0.524517
v -0.078147 -0.684010 -0.555301
v -0.094143 -0.643242 0.531092
v -0.077647 -0.684009 0.564009
vt 1.000000 0.500000
vt 1.000000 1.000000
vt 0.900000 1.000000
vt 0.900000 0.500000
vt 0.800000 1.000000
vt 0.800000 0.500000
vt 0.700000 1.000000
vt 0.700000 0.500000
vt 0.600000 1.000000
vt 0.600000 0.500000
vt 0.500000 1.000000
vt 0.500000 0.500000
vt 0.400000 1.000000
vt 0.400000 0.500000
vt 0.300000 1.000000
vt 0.300000 0.500000
vt 0.200000 1.000000
vt 0.200000 0.500000
vt 0.100000 1.000000
vt 0.100000 0.500000
vt -0.000000 1.000000
vt -0.000000 0.500000
vt 0.750000 0.490000
vt 0.891068 0.444164
vt 0.978254 0.324164
vt 0.978254 0.175836
vt 0.891068 0.055836
vt 0.750000 0.010000
vt 0.608932 0.055836
vt 0.521746 0.175836
vt 0.521746 0.324164
vt 0.608932 0.444164
vt 1.000000 0.500000
vt 1.000000 1.000000
vt 0.900000 1.000000
vt 0.900000 0.500000
vt 0.800000 1.000000
vt 0.800000 0.500000
vt 0.700000 1.000000
vt 0.700000 0.500000
vt 0.600000 1.000000
vt 0.600000 0.500000
vt 0.500000 1.000000
vt 0.500000 0.500000
vt 0.400000 1.000000
vt 0.400000 0.500000
vt 0.300000 1.000000
vt 0.300000 0.500000
vt 0.200000 1.000000
vt 0.200000 0.500000
vt 0.100000 1.000000
vt 0.100000 0.500000
vt -0.000000 1.000000
vt -0.000000 0.500000
vt 0.750000 0.490000
vt 0.891068 0.444164
vt 0.978254 0.324164
vt 0.978254 0.175836
vt 0.891068 0.055836
vt 0.750000 0.010000
vt 0.608932 0.055836
vt 0.521746 0.175836
vt 0.521746 0.324164
vt 0.608932 0.444164
vt 1.000000 0.500000
vt 1.000000 1.000000
vt 0.900000 1.000000
vt 0.900000 0.500000
vt 0.800000 1.000000
vt 0.800000 0.500000
vt 0.700000 1.000000
vt 0.700000 0.500000
vt 0.600000 1.000000
vt 0.600000 0.500000
vt 0.500000 1.000000
vt 0.500000 0.500000
vt 0.400000 1.000000
vt 0.400000 0.500000
vt 0.300000 1.000000
vt 0.300000 0.500000
vt 0.200000 1.000000
vt 0.200000 0.500000
vt 0.100000 1.000000
vt 0.100000 0.500000
vt -0.000000 1.000000
vt -0.000000 0.500000
vt 0.750000 0.490000
vt 0.891068 0.444164
vt 0.978254 0.324164
vt 0.978254 0.175836
vt 0.891068 0.055836
vt 0.750000 0.010000
vt 0.608932 0.055836
vt 0.521746 0.175836
vt 0.521746 0.324164
vt 0.608932 0.444164
vt 0.625000 0.500000
vt 0.875000 0.500000
vt 0.875000 0.750000
vt 0.625000 0.750000
vt 0.125000 0.500000
vt 0.375000 0.500000
vt 0.375000 0.750000
vt 0.125000 0.750000
vt 0.578837 0.750000
vt 0.453092 0.750000
vt 0.438398 0.750000
vt 0.578837 0.750000
vt 0.375000 0.750000
vt 0.375000 0.500000
vt 0.375000 0.500000
vt 0.375000 0.750000
vt 0.625000 0.500000
vt 0.625000 0.750000
vt 0.625000 0.750000
vt 0.625000 0.500000
vt 0.578837 0.750000
vt 0.439102 0.750000
vt 0.000000 0.000000
vt 0.000000 0.000000
vt 0.000000 0.000000
vt 0.578837 0.250000
vt 0.578837 0.000000
vt 0.474835 1.000000
vt 0.375000 1.000000
vt 0.375000 0.000000
vt 0.474835 0.000000
vt 0.472954 0.250000
vt 0.375000 0.250000
vt 0.435410 0.500000
vt 0.448903 0.500000
vt 0.423947 0.500000
vt 0.612637 0.750000
vt 0.612637 0.750000
vt 0.000000 0.000000
vt 0.000000 0.000000
vt 0.000000 0.000000
vt 0.000000 0.000000
vt 0.375000 0.000000
vt 0.625000 0.000000
vt 0.625000 0.250000
vt 0.375000 0.250000
vt 0.625000 0.500000
vt 0.375000 0.500000
vt 0.625000 0.750000
vt 0.375000 0.750000
vt 0.625000 1.000000
vt 0.375000 1.000000
vt 0.375000 0.750000
vt 0.375000 0.750000
vt 0.375000 0.750000
vt 0.875000 0.500000
vt 0.875000 0.750000
vt 0.375000 0.250000
vt 0.375000 0.250000
vt 0.375000 1.000000
vt 0.375000 1.000000
vt 0.375000 0.500000
vt 0.375000 0.000000
vt 0.375000 0.250000
vt 0.375000 0.000000
vt 0.375000 0.750000
vt 0.375000 0.500000
vt 0.375000 0.500000
vt 0.125000 0.500000
vt 0.375000 0.500000
vt 0.375000 0.750000
vt 0.125000 0.750000
vt 0.375000 1.000000
vt 0.375000 0.750000
vt 0.375000 0.750000
vt 0.375000 0.500000
vt 0.375000 0.500000
vt 0.375000 0.500000
vt 0.375000 0.750000
vt 0.375000 0.750000
vt 0.578837 0.500000
vt 0.578837 0.500000
vt 0.578837 0.500000
vt 0.375000 0.750000
vt 0.000000 0.000000
vt 0.000000 0.000000
vt 0.000000 0.000000
vt 0.578837 1.000000
vt 0.375000 1.000000
vt 0.375000 0.750000
vt 0.375000 0.250000
vt 0.375000 0.500000
vt 0.375000 0.500000
vt 0.375000 0.250000
vt 0.375000 0.500000
vt 0.375000 0.500000
vt 0.375000 0.000000
vt 0.375000 0.000000
vt 0.125000 0.750000
vt 0.125000 0.500000
vt 0.375000 0.500000
vt 0.375000 0.500000
vt 0.375000 0.750000
vt 0.375000 0.750000
vn 0.0000 -0.3090 -0.9511
vn 0.0000 -0.8090 -0.5878
vn 0.0000 -1.0000 -0.0000
vn 0.0000 -0.8090 0.5878
vn 0.0000 -0.3090 0.9511
vn 0.0000 0.3090 0.9511
vn 0.0000 0.8090 0.5878
vn 0.0000 1.0000 0.0000
vn 0.0000 0.8090 -0.5878
vn 0.0000 0.3090 -0.9511
vn -1.0000 0.0000 0.0000
vn 0.1729 0.9849 0.0000
vn -0.0033 0.1657 -0.9862
vn 0.0544 -0.9985 -0.0001
vn -0.4934 0.8698 -0.0003
vn 0.0898 -0.0050 -0.9959
vn -0.0000 0.4768 -0.8790
vn 0.5918 0.8061 0.0006
vn 0.0446 -0.6364 -0.7701
vn 0.0417 -0.6337 -0.7725
vn 0.0412 -0.6338 -0.7724
vn 0.9050 -0.4254 0.0018
vn 0.0411 -0.6325 0.7735
vn 0.0406 -0.6322 0.7737
vn 0.0419 -0.6276 0.7774
vn 0.2760 -0.6182 0.7360
vn 0.0427 -0.6224 0.7815
vn 0.0337 0.6333 -0.7731
vn 0.0170 0.4768 -0.8788
vn 0.0170 0.4768 0.8788
vn 0.2426 0.9701 0.0000
vn 0.1779 0.7117 -0.6796
vn -0.0380 0.7011 -0.7120
vn -0.9784 -0.2069 0.0000
vn -0.0187 0.4347 -0.9004
vn 0.7482 0.6635 0.0000
vn -0.0108 0.4178 0.9085
vn 0.4845 0.6784 0.5523
vn -0.9532 -0.3022 -0.0000
vn -0.0000 1.0000 0.0036
vn -0.0001 1.0000 -0.0043
vn -0.9435 -0.3312 0.0002
vn -0.9435 -0.3313 0.0001
vn -0.9448 -0.3275 0.0027
vn -0.9448 -0.3275 -0.0030
vn -0.0040 0.4193 0.9078
vn 0.0014 0.4269 -0.9043
vn 0.0047 0.3766 0.9264
vn 0.7009 -0.4142 -0.5807
vn 0.4569 0.5782 -0.6760
vn 0.7214 -0.3657 0.5881
vn 0.1032 -0.9947 -0.0002
vn 0.1779 0.7114 0.6799
vn -0.0380 0.7014 0.7117
vn -0.0234 0.4767 0.8788
vn 0.0290 0.6526 0.7572
vn 0.9320 0.3622 0.0167
vn -0.0100 1.0000 -0.0003
vn 0.5873 0.4931 0.6418
vn 0.1350 0.5031 0.8536
vn 0.0804 -0.0203 0.9966
vn 0.9422 0.3350 0.0017
vn 0.0920 0.0099 0.9957
vn -0.0990 0.3087 0.9460
vn 0.1730 -0.6548 -0.7358
vn 0.0919 0.0099 -0.9957
vn 0.0482 -0.6391 -0.7676
vn 0.5612 0.4831 -0.6721
vn 0.2034 0.3804 -0.9022
vn 0.3524 -0.0523 0.9344
vn 0.2188 -0.0157 -0.9756
vn 0.0034 -0.0084 1.0000
vn 0.0000 -0.0099 1.0000
vn 0.0005 -0.0097 1.0000
vn 0.0000 -0.0214 -0.9998
vn -0.0036 -0.0229 -0.9997
vn -0.0005 -0.0217 -0.9998
vn -0.9449 -0.3273 0.0030
vn 0.0042 0.3844 -0.9231
vn 0.9325 0.3611 -0.0111
vn -0.9449 -0.3274 -0.0033
vn -0.0019 -0.5972 -0.8021
vn 0.0006 -0.6221 0.7830
vn 0.0001 -0.6212 0.7836
vn -0.0025 -0.6137 0.7896
vn 0.0039 -0.0253 0.9997
vn 0.2241 0.5580 -0.7990
vn -0.0044 -0.0232 -0.9997
vn -0.0029 -0.6119 0.7909
vn -0.0042 -0.0081 -1.0000
vn -0.0096 -0.6305 -0.7761
vn 0.2349 0.5685 0.7884
vn 0.0041 -0.0081 1.0000
f 1/1/1 2/2/1 3/3/1 4/4/1
f 4/4/2 3/3/2 5/5/2 6/6/2
f 6/6/3 5/5/3 7/7/3 8/8/3
f 8/8/4 7/7/4 9/9/4 10/10/4
f 10/10/5 9/9/5 11/11/5 12/12/5
f 12/12/6 11/11/6 13/13/6 14/14/6
f 14/14/7 13/13/7 15/15/7 16/16/7
f 16/16/8 15/15/8 17/17/8 18/18/8
f 18/18/9 17/17/9 19/19/9 20/20/9
f 20/20/10 19/19/10 2/21/10 1/22/10
f 1/23/11 4/24/11 6/25/11 8/26/11 10/27/11 12/28/11 14/29/11 16/30/11 18/31/11 20/32/11
f 21/33/1 22/34/1 23/35/1 24/36/1
f 24/36/2 23/35/2 25/37/2 26/38/2
f 26/38/3 25/37/3 27/39/3 28/40/3
f 28/40/4 27/39/4 29/41/4 30/42/4
f 30/42/5 29/41/5 31/43/5 32/44/5
f 32/44/6 31/43/6 33/45/6 34/46/6
f 34/46/7 33/45/7 35/47/7 36/48/7
f 36/48/8 35/47/8 37/49/8 38/50/8
f 38/50/9 37/49/9 39/51/9 40/52/9
f 40/52/10 39/51/10 22/53/10 21/54/10
f 21/55/11 24/56/11 26/57/11 28/58/11 30/59/11 32/60/11 34/61/11 36/62/11 38/63/11 40/64/11
f 41/65/1 42/66/1 43/67/1 44/68/1
f 44/68/2 43/67/2 45/69/2 46/70/2
f 46/70/3 45/69/3 47/71/3 48/72/3
f 48/72/4 47/71/4 49/73/4 50/74/4
f 50/74/5 49/73/5 51/75/5 52/76/5
f 52/76/6 51/75/6 53/77/6 54/78/6
f 54/78/7 53/77/7 55/79/7 56/80/7
f 56/80/8 55/79/8 57/81/8 58/82/8
f 58/82/9 57/81/9 59/83/9 60/84/9
f 60/84/10 59/83/10 42/85/10 41/86/10
f 41/87/11 44/88/11 46/89/11 48/90/11 50/91/11 52/92/11 54/93/11 56/94/11 58/95/11 60/96/11
usemtl Material.001
f 61/97/12 62/98/12 63/99/12 64/100/12
f 65/101/3 66/102/3 67/103/3 68/104/3
f 69/105/13 70/106/13 71/107/13 72/108/13
f 73/109/14 74/110/14 75/111/14 76/112/14
f 77/113/15 78/114/15 79/115/15 80/116/15
f 67/103/3 66/102/3 74/110/3 73/109/3
f 81/117/16 82/118/16 70/106/16 69/105/16
f 78/119/17 83/120/17 79/121/17
f 62/98/18 84/122/18 85/123/18 63/99/18
f 67/103/19 82/118/20 86/124/21 68/125/21
f 68/126/22 86/127/22 87/128/22 65/129/22
f 65/129/23 87/128/23 88/130/24 66/102/25
f 74/110/26 89/131/26 90/132/26 75/111/26
f 66/102/25 88/130/24 89/131/27 74/110/27
f 83/133/28 69/105/28 72/108/28 79/134/28
f 78/119/29 64/135/29 83/120/29
f 61/136/30 77/137/30 91/138/30
f 78/119/31 77/137/31 61/136/31 64/135/31
f 63/99/32 85/123/32 81/117/32 64/100/32
f 83/120/33 64/135/33 81/117/33 69/105/33
f 92/139/34 93/140/34 94/141/34 95/142/34
f 95/142/35 94/141/35 96/143/35 97/144/35
f 97/144/36 96/143/36 98/145/36 99/146/36
f 99/146/37 98/145/37 93/147/37 92/148/37
f 99/146/38 100/149/38 101/150/38 102/151/38
f 96/143/8 94/152/8 93/153/8 98/145/8
f 92/148/39 95/142/39 103/154/39 104/155/39 105/156/39 106/157/39
f 99/146/40 92/148/40 106/157/40 100/149/40
f 95/142/41 97/144/41 107/158/41 103/154/41
f 105/159/42 104/155/43 108/160/44 109/161/45
f 100/149/46 106/157/46 105/156/46 110/162/46 101/150/46
f 103/154/47 107/158/47 111/163/47 112/164/47 104/155/47
f 108/165/3 113/166/3 114/167/3 109/168/3
f 110/162/48 105/156/48 115/169/48 116/170/48 117/171/48
f 113/166/49 112/164/49 71/172/49 76/173/49
f 97/144/50 72/174/50 111/163/50 107/158/50
f 110/162/51 114/167/51 75/175/51 90/176/51
f 114/167/52 113/166/52 76/173/52 75/175/52
f 61/97/53 118/177/53 84/122/53 62/98/53
f 91/138/54 119/178/54 118/177/54 61/136/54
f 80/116/55 91/138/55 77/137/55
f 119/178/56 91/138/56 80/116/56 102/179/56
f 114/167/57 110/162/57 117/171/57 120/180/57
f 79/115/58 97/144/58 99/146/58 80/116/58
f 102/151/59 101/150/59 110/162/59 90/176/59
f 80/181/60 99/182/60 102/183/60
f 89/131/61 88/130/61 118/177/61 119/178/61
f 87/128/62 86/127/62 85/123/62 84/122/62
f 88/130/63 87/128/63 84/122/63 118/177/63
f 102/151/64 90/176/64 119/178/64
f 71/107/65 70/106/65 73/109/65 76/112/65
f 86/124/66 82/118/66 81/117/66 85/184/66
f 70/106/67 82/118/20 67/103/19 73/109/67
f 111/163/68 72/174/68 71/172/68 112/164/68
f 72/174/69 97/144/69 79/115/69
f 89/131/70 119/178/70 90/132/70
f 69/105/71 70/106/71 71/107/71
f 116/170/72 115/169/73 121/185/73 122/186/74
f 123/187/75 124/188/76 125/189/77 126/190/75
f 108/160/44 104/155/43 123/187/78 126/190/78
f 104/155/79 112/164/79 127/191/79 124/188/79 123/187/79
f 112/164/80 113/166/80 128/192/80 127/191/80
f 105/159/42 109/161/45 121/193/81 115/194/81
f 109/168/82 114/167/82 120/180/82 122/186/82 121/195/82
f 113/166/83 108/165/83 126/196/83 125/189/84 128/192/85
f 127/191/86 128/192/86 129/197/86
f 124/188/87 127/191/87 129/197/87 130/198/87
f 125/189/77 124/188/76 130/198/88
f 128/192/85 125/189/84 130/198/89 129/197/89
f 120/180/90 117/171/90 131/199/90
f 122/186/91 120/180/91 131/199/91 132/200/91
f 117/171/92 116/170/92 132/200/92 131/199/92
f 116/170/72 122/186/74 132/200/93
