o icepick
v -1.058505 0.098708 -0.111324
v -0.991791 0.098708 -0.111324
v -0.991791 0.032874 -0.089934
v -1.058505 0.032874 -0.089934
v -0.991791 -0.007813 -0.033932
v -1.058505 -0.007813 -0.033932
v -0.991791 0.205229 -0.033932
v -1.058505 0.205229 -0.033932
v -0.991791 0.164541 -0.089934
v -1.058505 0.164541 -0.089934
v -1.006717 -0.149624 -0.310171
v -0.889322 -0.149624 -0.310171
v -0.889322 -0.233013 -0.283076
v -1.006717 -0.233013 -0.283076
v -0.889322 -0.284550 -0.212141
v -1.006717 -0.284550 -0.212141
v -0.889322 -0.284550 -0.124461
v -1.006717 -0.284550 -0.124461
v -0.889322 -0.233013 -0.053526
v -1.006717 -0.233013 -0.053526
v -0.889322 -0.149624 -0.026431
v -1.006717 -0.149624 -0.026431
v -0.889322 -0.066235 -0.053526
v -1.006717 -0.066235 -0.053526
v -0.889322 -0.014698 -0.124461
v -1.006717 -0.014698 -0.124461
v -0.889322 -0.014698 -0.212141
v -1.006717 -0.014698 -0.212141
v -0.889322 -0.066235 -0.283076
v -1.006717 -0.066235 -0.283076
v 1.406494 -0.151550 -0.063065
v 0.236873 0.053741 -0.157218
v 0.236873 -0.314244 -0.125624
v 1.467078 -0.314244 -0.054661
v -0.130784 -0.043085 -0.232938
v -0.136470 -0.215319 -0.231435
v -0.270460 -0.215710 -0.261474
v -0.357687 0.009829 -0.192871
v -0.137703 -0.314244 -0.142572
v -0.278134 -0.321864 -0.169936
v -0.137355 0.147314 -0.113684
v -0.318773 0.044297 -0.169563
v 0.236873 0.011121 -0.198890
v 0.236873 -0.218351 -0.198890
v -0.136832 -0.008373 -0.198143
v 1.447554 -0.181591 -0.086744
v 1.482829 -0.280731 -0.086744
v -1.042532 0.220468 -0.087760
v -1.005137 0.043657 -0.163666
v -0.549913 0.220468 -0.087760
v -0.393110 0.043658 -0.186594
v -1.005137 0.043282 -0.260706
v -0.923150 -0.215084 -0.382523
v -0.500384 0.043282 -0.260706
v -0.883069 -0.329108 -0.273734
v -0.480474 0.009005 -0.275284
v -0.391181 -0.215084 -0.382523
v -0.347633 -0.329108 -0.273734
v -0.778638 -0.633131 -0.555807
v -0.233717 -0.632679 -0.555807
v -0.211766 -0.682662 -0.554744
v -0.761709 -0.682662 -0.554744
v -0.260001 -0.563032 -0.521816
v -0.227225 -0.642800 -0.523960
v -0.093606 -0.644147 -0.524517
v -0.078147 -0.684010 -0.555301
v -1.058505 0.098708 0.111324
v -0.991791 0.098708 0.111324
v -0.991791 0.032874 0.089934
v -1.058505 0.032874 0.089934
v -0.991791 -0.007813 0.033932
v -1.058505 -0.007813 0.033932
v -0.991791 0.205229 0.033932
v -1.058505 0.205229 0.033932
v -0.991791 0.164541 0.089934
v -1.058505 0.164541 0.089934
v -1.006717 -0.149624 0.310171
v -0.889322 -0.149624 0.310171
v -0.889322 -0.233013 0.283076
v -1.006717 -0.233013 0.283076
v -0.889322 -0.284550 0.212141
v -1.006717 -0.284550 0.212141
v -0.889322 -0.284550 0.124461
v -1.006717 -0.284550 0.124461
v -0.889322 -0.233013 0.053526
v -1.006717 -0.233013 0.053526
v -0.889322 -0.149624 0.026431
v -1.006717 -0.149624 0.026431
v -0.889322 -0.066235 0.053526
v -1.006717 -0.066235 0.053526
v -0.889322 -0.014698 0.124461
v -1.006717 -0.014698 0.124461
v -0.889322 -0.014698 0.212141
v -1.006717 -0.014698 0.212141
v -0.889322 -0.066235 0.283076
v -1.006717 -0.066235 0.283076
v 1.406494 -0.151550 0.063065
v 0.236873 0.053741 0.157218
v 0.236873 -0.314244 0.125624
v 1.467078 -0.314244 0.054661
v -0.130784 -0.043085 0.232938
v -0.136470 -0.215319 0.231435
v -0.270460 -0.215710 0.261474
v -0.357687 0.009829 0.192871
v -0.137703 -0.314244 0.142572
v -0.278134 -0.321864 0.169936
v -0.137355 0.147314 0.113684
v -0.318773 0.044297 0.169563
v 0.236873 0.011121 0.198890
v 0.236873 -0.218351 0.198890
v -0.136832 -0.008373 0.198143
v 1.447554 -0.181591 0.086744
v 1.482829 -0.280731 0.086744
v -1.042532 0.220468 0.087760
v -1.005137 0.043657 0.163666
v -0.549913 0.220468 0.087760
v -0.393110 0.043658 0.186594
v -1.005137 0.043282 0.260706
v -0.923150 -0.215084 0.382523
v -0.500384 0.043282 0.260706
v -0.883069 -0.329108 0.273734
v -0.480474 0.009005 0.275284
v -0.391181 -0.215084 0.382523
v -0.347633 -0.329108 0.273734
v -0.778638 -0.633131 0.555807
v -0.233717 -0.632679 0.555807
v -0.211766 -0.682662 0.554744
v -0.761709 -0.682662 0.554744
v -0.260001 -0.563032 0.521816
v -0.227225 -0.642800 0.523960
v -0.093606 -0.644147 0.524517
v -0.078147 -0.684010 0.555301
vt 1.000000 0.500000
vt 1.000000 1.000000
vt 0.900000 1.000000
vt 0.900000 0.500000
vt 0.800000 1.000000
vt 0.800000 0.500000
vt 0.200000 0.500000
vt 0.200000 1.000000
vt 0.100000 1.000000
vt 0.100000 0.500000
vt -0.000000 1.000000
vt -0.000000 0.500000
vt 1.000000 0.500000
vt 1.000000 1.000000
vt 0.900000 1.000000
vt 0.900000 0.500000
vt 0.800000 1.000000
vt 0.800000 0.500000
vt 0.700000 1.000000
vt 0.700000 0.500000
vt 0.600000 1.000000
vt 0.600000 0.500000
vt 0.500000 1.000000
vt 0.500000 0.500000
vt 0.400000 1.000000
vt 0.400000 0.500000
vt 0.300000 1.000000
vt 0.300000 0.500000
vt 0.200000 1.000000
vt 0.200000 0.500000
vt 0.100000 1.000000
vt 0.100000 0.500000
vt -0.000000 1.000000
vt -0.000000 0.500000
vt 0.750000 0.490000
vt 0.891068 0.444164
vt 0.978254 0.324164
vt 0.978254 0.175836
vt 0.891068 0.055836
vt 0.750000 0.010000
vt 0.608932 0.055836
vt 0.521746 0.175836
vt 0.521746 0.324164
vt 0.608932 0.444164
vt 1.000000 0.500000
vt 0.900000 0.500000
vt 0.900000 1.000000
vt 1.000000 1.000000
vt 0.800000 0.500000
vt 0.800000 1.000000
vt 0.200000 0.500000
vt 0.100000 0.500000
vt 0.100000 1.000000
vt 0.200000 1.000000
vt -0.000000 0.500000
vt -0.000000 1.000000
vt 1.000000 0.500000
vt 0.900000 0.500000
vt 0.900000 1.000000
vt 1.000000 1.000000
vt 0.800000 0.500000
vt 0.800000 1.000000
vt 0.700000 0.500000
vt 0.700000 1.000000
vt 0.600000 0.500000
vt 0.600000 1.000000
vt 0.500000 0.500000
vt 0.500000 1.000000
vt 0.400000 0.500000
vt 0.400000 1.000000
vt 0.300000 0.500000
vt 0.300000 1.000000
vt 0.200000 0.500000
vt 0.200000 1.000000
vt 0.100000 0.500000
vt 0.100000 1.000000
vt -0.000000 0.500000
vt -0.000000 1.000000
vt 0.750000 0.490000
vt 0.608932 0.444164
vt 0.521746 0.324164
vt 0.521746 0.175836
vt 0.608932 0.055836
vt 0.750000 0.010000
vt 0.891068 0.055836
vt 0.978254 0.175836
vt 0.978254 0.324164
vt 0.891068 0.444164
vt 0.625000 0.750000
vt 0.625000 0.750000
vt 0.875000 0.750000
vt 0.875000 0.750000
vt 0.578837 0.750000
vt 0.453092 0.750000
vt 0.438398 0.750000
vt 0.578837 0.750000
vt 0.375000 0.750000
vt 0.375000 0.750000
vt 0.375000 0.750000
vt 0.375000 0.750000
vt 0.578837 0.750000
vt 0.439102 0.750000
vt 0.000000 0.000000
vt 0.000000 0.000000
vt 0.000000 0.000000
vt 0.375000 0.750000
vt 0.375000 0.750000
vt 0.474835 1.000000
vt 0.375000 1.000000
vt 0.612637 0.750000
vt 0.612637 0.750000
vt 0.000000 0.000000
vt 0.578837 0.000000
vt 0.000000 0.000000
vt 0.000000 0.000000
vt 0.375000 0.250000
vt 0.625000 0.250000
vt 0.625000 0.500000
vt 0.375000 0.500000
vt 0.625000 0.500000
vt 0.875000 0.500000
vt 0.875000 0.500000
vt 0.375000 0.500000
vt 0.375000 0.250000
vt 0.375000 0.250000
vt 0.375000 0.250000
vt 0.375000 0.250000
vt 0.375000 0.250000
vt 0.375000 0.500000
vt 0.375000 0.500000
vt 0.375000 0.500000
vt 0.375000 0.500000
vt 0.375000 0.500000
vt 0.375000 0.500000
vt 0.125000 0.500000
vt 0.125000 0.500000
vt 0.375000 0.500000
vt 0.625000 0.750000
vt 0.625000 0.750000
vt 0.375000 0.500000
vt 0.578837 1.000000
vt 0.375000 0.250000
vt 0.375000 0.500000
vt 0.375000 0.500000
vt 0.375000 0.250000
vt 0.375000 0.250000
vt 0.375000 0.500000
vt 0.375000 0.500000
vt 0.125000 0.500000
vt 0.375000 0.500000
vt 0.375000 0.500000
vt 0.375000 0.500000
vt 0.375000 0.250000
vt 0.625000 0.250000
vt 0.375000 0.000000
vt 0.375000 0.000000
vt 0.474835 0.000000
vt 0.474835 0.000000
vt 0.578837 0.000000
vt 0.625000 0.750000
vt 0.625000 0.750000
vt 0.125000 0.750000
vt 0.125000 0.750000
vt 0.578837 0.750000
vt 0.578837 0.750000
vt 0.438398 0.750000
vt 0.453092 0.750000
vt 0.578837 0.750000
vt 0.439102 0.750000
vt 0.000000 0.000000
vt 0.000000 0.000000
vt 0.375000 1.000000
vt 0.474835 1.000000
vt 0.612637 0.750000
vt 0.612637 0.750000
vt 0.375000 0.500000
vt 0.375000 0.500000
vt 0.375000 0.500000
vt 0.375000 0.500000
vt 0.375000 0.500000
vt 0.578837 1.000000
vt 0.375000 0.250000
vt 0.375000 0.250000
vt 0.375000 0.500000
vt 0.375000 0.500000
vt 0.375000 0.500000
vt 0.375000 0.500000
vt 0.125000 0.500000
vt 0.375000 0.500000
vt 0.375000 0.500000
vn 0.0000 -0.3090 -0.9511
vn 0.0000 -0.8090 -0.5878
vn 0.0000 0.8090 -0.5878
vn 0.0000 0.3090 -0.9511
vn 0.0000 -1.0000 0.0000
vn 0.0000 -0.8090 0.5878
vn 0.0000 -0.3090 0.9511
vn 0.0000 0.3090 0.9511
vn 0.0000 0.8090 0.5878
vn 0.0000 1.0000 0.0000
vn -1.0000 0.0000 0.0000
vn 0.1729 0.9849 0.0000
vn -0.0033 0.1657 -0.9862
vn 0.0546 -0.9985 0.0003
vn 0.0546 -0.9985 -0.0003
vn 0.0898 -0.0050 -0.9959
vn -0.0000 0.4768 -0.8790
vn 0.0446 -0.6364 -0.7701
vn 0.0417 -0.6337 -0.7725
vn 0.0412 -0.6338 -0.7724
vn 0.0337 0.6333 -0.7731
vn 0.0170 0.4768 -0.8788
vn 0.1779 0.7117 -0.6796
vn -0.0380 0.7011 -0.7120
vn 0.2426 0.9701 0.0000
vn -0.0187 0.4347 -0.9004
vn -0.0001 1.0000 -0.0043
vn -0.9532 -0.3022 -0.0000
vn 0.0014 0.4269 -0.9043
vn 0.7009 -0.4142 -0.5807
vn 0.4569 0.5782 -0.6760
vn -0.0091 1.0000 0.0002
vn -0.0091 1.0000 -0.0002
vn -0.0093 1.0000 -0.0003
vn 0.1730 -0.6548 -0.7358
vn 0.0919 0.0099 -0.9957
vn 0.0482 -0.6391 -0.7676
vn 0.5612 0.4831 -0.6721
vn 0.2034 0.3804 -0.9022
vn 0.2188 -0.0157 -0.9756
vn 0.0000 -0.0214 -0.9998
vn -0.0035 -0.0229 -0.9997
vn -0.0005 -0.0217 -0.9998
vn -0.9449 -0.3275 0.0027
vn -0.9436 -0.3312 0.0002
vn -0.9449 -0.3273 0.0030
vn 0.0042 0.3844 -0.9231
vn 0.9325 0.3611 -0.0111
vn 0.0006 -0.6221 0.7830
vn 0.0001 -0.6212 0.7837
vn -0.0025 -0.6136 0.7896
vn 0.0039 -0.0253 0.9997
vn 0.2241 0.5580 -0.7990
vn -0.0044 -0.0232 -0.9997
vn -0.0029 -0.6119 0.7909
vn 0.1037 -0.9946 -0.0000
vn -0.9449 -0.3275 -0.0027
vn -0.9436 -0.3312 -0.0002
vn 0.7482 0.6635 0.0000
vn -0.9784 -0.2069 -0.0000
vn 0.9053 -0.4247 -0.0017
vn 0.9053 -0.4247 0.0017
vn 0.9054 -0.4246 0.0018
vn 0.5912 0.8065 0.0006
vn 0.5912 0.8065 -0.0006
vn -0.4936 0.8697 -0.0003
vn -0.4936 0.8697 0.0003
vn -0.0033 0.1657 0.9862
vn 0.0898 -0.0050 0.9959
vn -0.0000 0.4768 0.8790
vn 0.0446 -0.6364 0.7701
vn 0.0412 -0.6338 0.7724
vn 0.0417 -0.6337 0.7725
vn 0.0337 0.6333 0.7732
vn 0.0170 0.4768 0.8788
vn 0.1779 0.7117 0.6796
vn -0.0380 0.7011 0.7120
vn -0.0187 0.4347 0.9004
vn -0.0001 1.0000 0.0043
vn 0.0014 0.4269 0.9043
vn 0.7009 -0.4142 0.5807
vn 0.4569 0.5782 0.6760
vn 0.1730 -0.6548 0.7358
vn 0.0919 0.0099 0.9957
vn 0.0482 -0.6391 0.7676
vn 0.5612 0.4831 0.6721
vn 0.2034 0.3804 0.9022
vn 0.2188 -0.0157 0.9756
vn 0.0000 -0.0214 0.9998
vn -0.0005 -0.0217 0.9998
vn -0.0035 -0.0228 0.9997
vn -0.9449 -0.3273 -0.0030
vn 0.0042 0.3844 0.9231
vn 0.9325 0.3611 0.0111
vn 0.0006 -0.6221 -0.7830
vn -0.0025 -0.6136 -0.7896
vn 0.0001 -0.6212 -0.7837
vn 0.0039 -0.0253 -0.9997
vn 0.2241 0.5580 0.7990
vn -0.0044 -0.0232 0.9997
vn -0.0029 -0.6119 -0.7909
vn 0.9422 0.3351 0.0017
vn 0.9422 0.3351 -0.0017
f 1/1/1 2/2/1 3/3/1 4/4/1
f 4/4/2 3/3/2 5/5/2 6/6/2
f 8/7/3 7/8/3 9/9/3 10/10/3
f 10/10/4 9/9/4 2/11/4 1/12/4
f 11/13/1 12/14/1 13/15/1 14/16/1
f 14/16/2 13/15/2 15/17/2 16/18/2
f 16/18/5 15/17/5 17/19/5 18/20/5
f 18/20/6 17/19/6 19/21/6 20/22/6
f 20/22/7 19/21/7 21/23/7 22/24/7
f 22/24/8 21/23/8 23/25/8 24/26/8
f 24/26/9 23/25/9 25/27/9 26/28/9
f 26/28/10 25/27/10 27/29/10 28/30/10
f 28/30/3 27/29/3 29/31/3 30/32/3
f 30/32/4 29/31/4 12/33/4 11/34/4
f 11/35/11 14/36/11 16/37/11 18/38/11 20/39/11 22/40/11 24/41/11 26/42/11 28/43/11 30/44/11
f 67/45/7 70/46/7 69/47/7 68/48/7
f 70/46/6 72/49/6 71/50/6 69/47/6
f 74/51/9 76/52/9 75/53/9 73/54/9
f 76/52/8 67/55/8 68/56/8 75/53/8
f 77/57/7 80/58/7 79/59/7 78/60/7
f 80/58/6 82/61/6 81/62/6 79/59/6
f 82/61/5 84/63/5 83/64/5 81/62/5
f 84/63/2 86/65/2 85/66/2 83/64/2
f 86/65/1 88/67/1 87/68/1 85/66/1
f 88/67/4 90/69/4 89/70/4 87/68/4
f 90/69/3 92/71/3 91/72/3 89/70/3
f 92/71/10 94/73/10 93/74/10 91/72/10
f 94/73/9 96/75/9 95/76/9 93/74/9
f 96/75/8 77/77/8 78/78/8 95/76/8
f 77/79/11 96/80/11 94/81/11 92/82/11 90/83/11 88/84/11 86/85/11 84/86/11 82/87/11 80/88/11
f 6/6/5 5/5/5 71/50/5 72/49/5
f 8/7/10 74/51/10 73/54/10 7/8/10
f 1/12/11 4/4/11 6/6/11 72/49/11 70/46/11 67/55/11 76/52/11 74/51/11 8/7/11 10/10/11
usemtl Material.002
f 32/89/12 98/90/12 97/91/12 31/92/12
f 35/93/13 36/94/13 37/95/13 38/96/13
f 105/97/14 106/98/14 40/99/15 39/100/15
f 43/101/16 44/102/16 36/94/16 35/93/16
f 41/103/17 45/104/17 42/105/17
f 99/106/5 105/97/5 39/100/5 33/107/5
f 33/107/18 44/102/19 47/108/20 34/109/20
f 45/110/21 35/93/21 38/96/21 42/111/21
f 41/103/22 32/112/22 45/104/22
f 31/92/23 46/113/23 43/101/23 32/89/23
f 45/104/24 32/112/24 43/101/24 35/93/24
f 107/114/25 98/115/25 32/112/25 41/103/25
f 49/116/26 48/117/26 50/118/26 51/119/26
f 116/120/10 50/118/10 48/121/10 114/122/10
f 49/116/27 51/119/27 54/123/27 52/124/27
f 53/125/28 119/126/28 118/127/28 115/128/28 49/116/28 52/124/28
f 52/124/29 54/123/29 56/129/29 57/130/29 53/125/29
f 58/131/30 57/130/30 37/132/30 40/133/30
f 51/119/31 38/134/31 56/129/31 54/123/31
f 121/135/5 55/136/5 58/131/5 124/137/5
f 108/138/32 42/139/33 51/119/34 117/140/32
f 37/95/35 36/94/35 39/100/35 40/99/35
f 47/108/36 44/102/36 43/101/36 46/141/36
f 36/94/37 44/102/19 33/107/18 39/100/37
f 56/129/38 38/134/38 37/132/38 57/130/38
f 38/134/39 51/119/39 42/139/39
f 35/93/40 36/94/40 37/95/40
f 59/142/41 60/143/42 61/144/43 62/145/41
f 55/146/44 53/125/45 59/142/46 62/145/46
f 53/125/47 57/130/47 63/147/47 60/143/47 59/142/47
f 57/130/48 58/131/48 64/148/48 63/147/48
f 58/131/49 55/136/49 62/149/49 61/144/50 64/148/51
f 63/147/52 64/148/52 65/150/52
f 60/143/53 63/147/53 65/150/53 66/151/53
f 61/144/43 60/143/42 66/151/54
f 64/148/51 61/144/50 66/151/55 65/150/55
f 40/133/56 106/152/56 124/137/56 58/131/56
f 55/146/44 121/153/57 119/126/58 53/125/45
f 117/140/59 51/119/59 50/118/59 116/120/59
f 49/116/60 115/128/60 114/154/60 48/117/60
f 100/155/61 34/156/62 47/157/63 113/158/61
f 31/92/64 97/91/65 112/159/65 46/113/64
f 42/139/66 108/138/67 107/160/67 41/161/66
f 34/162/5 100/163/5 99/106/5 33/107/5
f 101/164/68 104/165/68 103/166/68 102/167/68
f 109/168/69 101/164/69 102/167/69 110/169/69
f 107/114/70 108/170/70 111/171/70
f 99/106/71 100/172/72 113/173/72 110/169/73
f 111/174/74 108/175/74 104/165/74 101/164/74
f 107/114/75 111/171/75 98/115/75
f 97/91/76 98/90/76 109/168/76 112/159/76
f 111/171/77 101/164/77 109/168/77 98/115/77
f 115/128/78 117/140/78 116/120/78 114/154/78
f 115/128/79 118/127/79 120/176/79 117/140/79
f 118/127/80 119/126/80 123/177/80 122/178/80 120/176/80
f 124/137/81 106/152/81 103/179/81 123/177/81
f 117/140/82 120/176/82 122/178/82 104/180/82
f 103/166/83 106/98/83 105/97/83 102/167/83
f 113/173/84 112/181/84 109/168/84 110/169/84
f 102/167/85 105/97/85 99/106/71 110/169/73
f 122/178/86 123/177/86 103/179/86 104/180/86
f 104/180/87 108/138/87 117/140/87
f 101/164/88 103/166/88 102/167/88
f 125/182/89 128/183/89 127/184/90 126/185/91
f 121/153/57 128/183/92 125/182/92 119/126/58
f 119/126/93 125/182/93 126/185/93 129/186/93 123/177/93
f 123/177/94 129/186/94 130/187/94 124/137/94
f 124/137/95 130/187/96 127/184/97 128/188/95 121/135/95
f 129/186/98 131/189/98 130/187/98
f 126/185/99 132/190/99 131/189/99 129/186/99
f 127/184/90 132/190/100 126/185/91
f 130/187/96 131/189/101 132/190/101 127/184/97
f 46/113/102 112/159/103 113/158/103 47/157/102
